<?xml version="1.0" standalone="no"?>
<!DOCTYPE svg PUBLIC "-//W3C//DTD SVG 20010904//EN"
 "http://www.w3.org/TR/2001/REC-SVG-20010904/DTD/svg10.dtd">
<svg version="1.0" xmlns="http://www.w3.org/2000/svg"
 width="225.000000pt" height="225.000000pt" viewBox="0 0 225.000000 225.000000"
 preserveAspectRatio="xMidYMid meet">
<metadata>
Created by potrace 1.11, written by Peter Selinger 2001-2013
</metadata>
<g transform="translate(0.000000,225.000000) scale(0.100000,-0.100000)"
fill="#000000" stroke="none">
<path d="M701 1875 c-223 -80 -409 -149 -414 -154 -6 -6 -1 -79 12 -193 12
-101 41 -346 65 -546 24 -200 47 -367 52 -372 9 -9 652 -365 691 -383 18 -8
75 20 380 188 197 109 359 199 361 200 3 3 23 154 112 858 18 137 30 251 27
253 -9 9 -849 294 -865 294 -10 -1 -199 -66 -421 -145z m699 -645 c145 -311
265 -568 267 -572 2 -5 -38 -8 -89 -8 l-94 0 -55 127 -55 128 -238 0 -239 0
-49 -127 -50 -128 -100 0 c-76 0 -99 3 -95 13 3 6 114 253 247 547 133 294
249 550 257 569 8 18 18 30 22 25 4 -5 126 -263 271 -574z"/>
<path d="M1052 1264 c-40 -98 -72 -182 -72 -186 0 -5 72 -8 160 -8 88 0 160 3
160 8 -1 4 -40 88 -88 186 l-87 179 -73 -179z"/>
</g>
</svg>
